# xmcd
#
# Track frame offsets:
#	150
#	14325
#	22950
#	37275
#	47850
#	59325
#	72150
#	86475
#	99450
#	113025
#	121650
#	128175
#	138900
#	147825
#	162000
#	172575
#	184500
#	193275
#	205800
#	217275
#	239850
#	251175
#	263850
#	276375
#	290100
#
# Disc length: 4018 seconds
#
# Revision: 1
# Processed by: cddbd v1.5.2PL0 Copyright (c) Steve Scherf et al.
# Submitted via: audiograbber 1.83.01
#
DISCID=820fb019
DTITLE=Various Artist - 2007 - gospel christmas
DYEAR=2007
DGENRE=gospel
TTITLE0=mahalia jackson - silent night
TTITLE1=sister rosetta tharpe - shine for jesus
TTITLE2=louis armstrong - down by the riverside
TTITLE3=mahalia jackson - amazing grace
TTITLE4=paul robeson - ol' man river
TTITLE5=golden gate quartet - preacher and the bear
TTITLE6=shirley verrett - hold on!
TTITLE7=the oak ridge boys - dear jesus abide with me
TTITLE8=mahalia jackson - hark! the herald angels sing 
TTITLE9=sister rosetta tharpe - family prayer
TTITLE10=southern mission choir - oh, the joy that came to me
TTITLE11=mississippi singers - talk about jesus
TTITLE12=paul robeson - joshua fi the battle of jericho
TTITLE13=mahalia jackson - the lord's prayer
TTITLE14=golden gate quartet - go where i send thee
TTITLE15=the kingsmen - he's the only one
TTITLE16=webb pierce - he's got the whole world in his hand
TTITLE17=paul robeson - swing low, sweet chariot
TTITLE18=sister rosetta tharpe - nothing between
TTITLE19=shirley verret - o glory
TTITLE20=southern singers - the coming of the lord
TTITLE21=the oak ridge boys - thank god i'm reborn
TTITLE22=sarah vaughan - sometimes i feel lik a motherless child
TTITLE23=luis armstrong - nobody know the troubles i've seen
TTITLE24=mahalia jackson - little town of bethlehem
EXTD=
EXTT0=
EXTT1=
EXTT2=
EXTT3=
EXTT4=
EXTT5=
EXTT6=
EXTT7=
EXTT8=
EXTT9=
EXTT10=
EXTT11=
EXTT12=
EXTT13=
EXTT14=
EXTT15=
EXTT16=
EXTT17=
EXTT18=
EXTT19=
EXTT20=
EXTT21=
EXTT22=
EXTT23=
EXTT24=
PLAYORDER=
